<svg preserveAspectRatio="none" width="100%" height="100%" overflow="visible" style="display: block;" viewBox="0 0 24 24" fill="none" xmlns="http://www.w3.org/2000/svg">
<g id="ic:baseline-whatsapp">
<path id="Vector" d="M19.05 4.90957C18.1331 3.98367 17.0411 3.24953 15.8376 2.74993C14.634 2.25032 13.3431 1.99525 12.04 1.99957C6.58005 1.99957 2.13005 6.44957 2.13005 11.9096C2.13005 13.6596 2.59005 15.3596 3.45005 16.8596L2.05005 21.9996L7.30005 20.6196C8.75005 21.4096 10.38 21.8296 12.04 21.8296C17.5 21.8296 21.9501 17.3796 21.9501 11.9196C21.9501 9.26957 20.92 6.77957 19.05 4.90957ZM12.04 20.1496C10.56 20.1496 9.11005 19.7496 7.84005 18.9996L7.54005 18.8196L4.42005 19.6396L5.25005 16.5996L5.05005 16.2896C4.2276 14.9766 3.79097 13.4588 3.79005 11.9096C3.79005 7.36957 7.49005 3.66957 12.03 3.66957C14.23 3.66957 16.3 4.52957 17.85 6.08957C18.6177 6.85343 19.226 7.76211 19.6397 8.76289C20.0534 9.76368 20.2642 10.8367 20.26 11.9196C20.28 16.4596 16.58 20.1496 12.04 20.1496ZM16.56 13.9896C16.31 13.8696 15.09 13.2696 14.87 13.1796C14.64 13.0996 14.48 13.0596 14.31 13.2996C14.14 13.5496 13.67 14.1096 13.53 14.2696C13.39 14.4396 13.24 14.4596 12.99 14.3296C12.74 14.2096 11.94 13.9396 11 13.0996C10.26 12.4396 9.77005 11.6296 9.62005 11.3796C9.48005 11.1296 9.60005 10.9996 9.73005 10.8696C9.84005 10.7596 9.98005 10.5796 10.1 10.4396C10.22 10.2996 10.27 10.1896 10.35 10.0296C10.43 9.85957 10.39 9.71957 10.33 9.59957C10.27 9.47957 9.77005 8.25957 9.57005 7.75957C9.37005 7.27957 9.16005 7.33957 9.01005 7.32957H8.53005C8.36005 7.32957 8.10005 7.38957 7.87005 7.63957C7.65005 7.88957 7.01005 8.48957 7.01005 9.70957C7.01005 10.9296 7.90005 12.1096 8.02005 12.2696C8.14005 12.4396 9.77005 14.9396 12.25 16.0096C12.84 16.2696 13.3 16.4196 13.66 16.5296C14.25 16.7196 14.79 16.6896 15.22 16.6296C15.7 16.5596 16.69 16.0296 16.89 15.4496C17.1 14.8696 17.1 14.3796 17.03 14.2696C16.96 14.1596 16.81 14.1096 16.56 13.9896Z" fill="var(--fill-0, #FAFAFA)"/>
</g>
</svg>
