<svg preserveAspectRatio="none" width="100%" height="100%" overflow="visible" style="display: block;" viewBox="0 0 24 24" fill="none" xmlns="http://www.w3.org/2000/svg">
<g id="YoutubeLogo" clip-path="url(#clip0_4929_37732)">
<g id="Vector">
</g>
<path id="Vector_2" d="M15 12L10.5 9V15L15 12Z" stroke="var(--stroke-0, #FAFAFA)" stroke-width="1.5" stroke-linecap="round" stroke-linejoin="round"/>
<path id="Vector_3" d="M2.25 12C2.25 14.8041 2.53781 16.4484 2.75719 17.2941C2.8152 17.5241 2.92694 17.737 3.08322 17.9155C3.23951 18.094 3.43589 18.2328 3.65625 18.3206C6.79875 19.5328 12 19.5 12 19.5C12 19.5 17.2012 19.5328 20.3438 18.3206C20.5648 18.2333 20.7619 18.0947 20.9189 17.9162C21.0759 17.7377 21.1882 17.5245 21.2466 17.2941C21.4659 16.4503 21.7537 14.8041 21.7537 12C21.7537 9.19594 21.4659 7.55156 21.2466 6.70594C21.1888 6.47468 21.0768 6.26051 20.9198 6.08117C20.7628 5.90183 20.5653 5.76249 20.3438 5.67469C17.2012 4.46719 12 4.5 12 4.5C12 4.5 6.79875 4.46719 3.65625 5.67938C3.43466 5.76717 3.23718 5.90652 3.08017 6.08586C2.92317 6.26519 2.81116 6.47937 2.75344 6.71063C2.53781 7.55063 2.25 9.19594 2.25 12Z" stroke="var(--stroke-0, #FAFAFA)" stroke-width="1.5" stroke-linecap="round" stroke-linejoin="round"/>
</g>
<defs>
<clipPath id="clip0_4929_37732">
<rect width="24" height="24" fill="white"/>
</clipPath>
</defs>
</svg>
